<?xml version="1.0" encoding="utf-8"?>
<!-- Generator: Adobe Illustrator 16.0.4, SVG Export Plug-In . SVG Version: 6.00 Build 0)  -->
<!DOCTYPE svg PUBLIC "-//W3C//DTD SVG 1.1//EN" "http://www.w3.org/Graphics/SVG/1.1/DTD/svg11.dtd">
<svg version="1.1" id="Layer_1" xmlns="http://www.w3.org/2000/svg" xmlns:xlink="http://www.w3.org/1999/xlink" x="0px" y="0px"
	 width="595.279px" height="841.891px" viewBox="0 0 595.279 841.891" enable-background="new 0 0 595.279 841.891"
	 xml:space="preserve">
<path d="M279.037,147.404c10.58-9.534,26.625-9.534,37.205,0l269.736,241.833c11.511,10.23,12.44,27.904,2.093,39.415
	c-10.348,11.513-27.902,12.442-39.414,2.094l-9.302-8.373v238.696c0,41.042-33.368,74.41-74.409,74.41H130.101
	c-41.041,0-74.409-33.368-74.409-74.41V422.372l-9.302,8.373c-11.511,10.232-29.066,9.303-39.414-2.094
	c-10.349-11.396-9.302-29.066,2.093-39.415L279.037,147.404z M111.615,372.494v288.69c0,10.23,8.371,18.603,18.603,18.603h55.808
	V558.871c0-46.272,37.438-83.711,83.712-83.711h55.808c46.273,0,83.712,37.438,83.712,83.711v120.916h55.808
	c10.231,0,18.604-8.371,18.604-18.603v-288.69L297.64,205.77 M241.832,679.787h111.615V558.871
	c0-15.463-12.439-27.902-27.903-27.902h-55.808c-15.464,0-27.904,12.439-27.904,27.902V679.787z"/>
</svg>
